<mxfile host="app.diagrams.net" agent="Mozilla/5.0 (Windows NT 10.0; Win64; x64) AppleWebKit/537.36 (KHTML, like Gecko) Chrome/131.0.0.0 Safari/537.36 Edg/131.0.0.0" version="26.0.5">
  <diagram name="Page-1" id="9H8NvOVDHI6hU_dA8FwD">
    <mxGraphModel dx="1802" dy="791" grid="1" gridSize="10" guides="1" tooltips="1" connect="1" arrows="1" fold="1" page="0" pageScale="1" pageWidth="850" pageHeight="1100" math="0" shadow="0">
      <root>
        <mxCell id="0" />
        <mxCell id="1" parent="0" />
        <mxCell id="9REklD1y4iSybHNgkByB-1" value="Nhân viên" style="swimlane;fontStyle=0;childLayout=stackLayout;horizontal=1;startSize=30;horizontalStack=0;resizeParent=1;resizeParentMax=0;resizeLast=0;collapsible=1;marginBottom=0;whiteSpace=wrap;html=1;" parent="1" vertex="1">
          <mxGeometry x="-380" y="675" width="140" height="210" as="geometry" />
        </mxCell>
        <mxCell id="9REklD1y4iSybHNgkByB-2" value="&lt;u&gt;Mã nhân viên&lt;/u&gt;" style="text;strokeColor=none;fillColor=none;align=left;verticalAlign=middle;spacingLeft=4;spacingRight=4;overflow=hidden;points=[[0,0.5],[1,0.5]];portConstraint=eastwest;rotatable=0;whiteSpace=wrap;html=1;" parent="9REklD1y4iSybHNgkByB-1" vertex="1">
          <mxGeometry y="30" width="140" height="30" as="geometry" />
        </mxCell>
        <mxCell id="9REklD1y4iSybHNgkByB-3" value="Họ tên" style="text;strokeColor=none;fillColor=none;align=left;verticalAlign=middle;spacingLeft=4;spacingRight=4;overflow=hidden;points=[[0,0.5],[1,0.5]];portConstraint=eastwest;rotatable=0;whiteSpace=wrap;html=1;" parent="9REklD1y4iSybHNgkByB-1" vertex="1">
          <mxGeometry y="60" width="140" height="30" as="geometry" />
        </mxCell>
        <mxCell id="9REklD1y4iSybHNgkByB-4" value="Ngày sinh" style="text;strokeColor=none;fillColor=none;align=left;verticalAlign=middle;spacingLeft=4;spacingRight=4;overflow=hidden;points=[[0,0.5],[1,0.5]];portConstraint=eastwest;rotatable=0;whiteSpace=wrap;html=1;" parent="9REklD1y4iSybHNgkByB-1" vertex="1">
          <mxGeometry y="90" width="140" height="30" as="geometry" />
        </mxCell>
        <mxCell id="9REklD1y4iSybHNgkByB-7" value="Nơi sinh&amp;nbsp;" style="text;strokeColor=none;fillColor=none;align=left;verticalAlign=middle;spacingLeft=4;spacingRight=4;overflow=hidden;points=[[0,0.5],[1,0.5]];portConstraint=eastwest;rotatable=0;whiteSpace=wrap;html=1;" parent="9REklD1y4iSybHNgkByB-1" vertex="1">
          <mxGeometry y="120" width="140" height="30" as="geometry" />
        </mxCell>
        <mxCell id="9REklD1y4iSybHNgkByB-5" value="Địa chỉ&lt;span style=&quot;color: rgba(0, 0, 0, 0); font-family: monospace; font-size: 0px; text-wrap-mode: nowrap;&quot;&gt;%3CmxGraphModel%3E%3Croot%3E%3CmxCell%20id%3D%220%22%2F%3E%3CmxCell%20id%3D%221%22%20parent%3D%220%22%2F%3E%3CmxCell%20id%3D%222%22%20value%3D%22H%E1%BB%8D%20t%C3%AAn%22%20style%3D%22text%3BstrokeColor%3Dnone%3BfillColor%3Dnone%3Balign%3Dleft%3BverticalAlign%3Dmiddle%3BspacingLeft%3D4%3BspacingRight%3D4%3Boverflow%3Dhidden%3Bpoints%3D%5B%5B0%2C0.5%5D%2C%5B1%2C0.5%5D%5D%3BportConstraint%3Deastwest%3Brotatable%3D0%3BwhiteSpace%3Dwrap%3Bhtml%3D1%3B%22%20vertex%3D%221%22%20parent%3D%221%22%3E%3CmxGeometry%20y%3D%22420%22%20width%3D%22140%22%20height%3D%2230%22%20as%3D%22geometry%22%2F%3E%3C%2FmxCell%3E%3C%2Froot%3E%3C%2FmxGraphModel%3E&lt;/span&gt;" style="text;strokeColor=none;fillColor=none;align=left;verticalAlign=middle;spacingLeft=4;spacingRight=4;overflow=hidden;points=[[0,0.5],[1,0.5]];portConstraint=eastwest;rotatable=0;whiteSpace=wrap;html=1;" parent="9REklD1y4iSybHNgkByB-1" vertex="1">
          <mxGeometry y="150" width="140" height="30" as="geometry" />
        </mxCell>
        <mxCell id="9REklD1y4iSybHNgkByB-8" value="Công việc (kế toán, trình dược viên, v.v)" style="text;strokeColor=none;fillColor=none;align=left;verticalAlign=middle;spacingLeft=4;spacingRight=4;overflow=hidden;points=[[0,0.5],[1,0.5]];portConstraint=eastwest;rotatable=0;whiteSpace=wrap;html=1;" parent="9REklD1y4iSybHNgkByB-1" vertex="1">
          <mxGeometry y="180" width="140" height="30" as="geometry" />
        </mxCell>
        <mxCell id="9REklD1y4iSybHNgkByB-9" value="Khách hàng" style="swimlane;fontStyle=0;childLayout=stackLayout;horizontal=1;startSize=30;horizontalStack=0;resizeParent=1;resizeParentMax=0;resizeLast=0;collapsible=1;marginBottom=0;whiteSpace=wrap;html=1;" parent="1" vertex="1">
          <mxGeometry x="550" y="635" width="140" height="290" as="geometry" />
        </mxCell>
        <mxCell id="9REklD1y4iSybHNgkByB-10" value="&lt;u&gt;Mã khách hàng&lt;/u&gt;" style="text;strokeColor=none;fillColor=none;align=left;verticalAlign=middle;spacingLeft=4;spacingRight=4;overflow=hidden;points=[[0,0.5],[1,0.5]];portConstraint=eastwest;rotatable=0;whiteSpace=wrap;html=1;" parent="9REklD1y4iSybHNgkByB-9" vertex="1">
          <mxGeometry y="30" width="140" height="30" as="geometry" />
        </mxCell>
        <mxCell id="9REklD1y4iSybHNgkByB-11" value="Loại khách hàng (bệnh nhân, cửa hàng dược, v.v)" style="text;strokeColor=none;fillColor=none;align=left;verticalAlign=middle;spacingLeft=4;spacingRight=4;overflow=hidden;points=[[0,0.5],[1,0.5]];portConstraint=eastwest;rotatable=0;whiteSpace=wrap;html=1;" parent="9REklD1y4iSybHNgkByB-9" vertex="1">
          <mxGeometry y="60" width="140" height="50" as="geometry" />
        </mxCell>
        <mxCell id="9REklD1y4iSybHNgkByB-12" value="Tên khách hàng" style="text;strokeColor=none;fillColor=none;align=left;verticalAlign=middle;spacingLeft=4;spacingRight=4;overflow=hidden;points=[[0,0.5],[1,0.5]];portConstraint=eastwest;rotatable=0;whiteSpace=wrap;html=1;" parent="9REklD1y4iSybHNgkByB-9" vertex="1">
          <mxGeometry y="110" width="140" height="30" as="geometry" />
        </mxCell>
        <mxCell id="9REklD1y4iSybHNgkByB-13" value="Họ tên người đại diện" style="text;strokeColor=none;fillColor=none;align=left;verticalAlign=middle;spacingLeft=4;spacingRight=4;overflow=hidden;points=[[0,0.5],[1,0.5]];portConstraint=eastwest;rotatable=0;whiteSpace=wrap;html=1;" parent="9REklD1y4iSybHNgkByB-9" vertex="1">
          <mxGeometry y="140" width="140" height="30" as="geometry" />
        </mxCell>
        <mxCell id="9REklD1y4iSybHNgkByB-14" value="Địa chỉ" style="text;strokeColor=none;fillColor=none;align=left;verticalAlign=middle;spacingLeft=4;spacingRight=4;overflow=hidden;points=[[0,0.5],[1,0.5]];portConstraint=eastwest;rotatable=0;whiteSpace=wrap;html=1;" parent="9REklD1y4iSybHNgkByB-9" vertex="1">
          <mxGeometry y="170" width="140" height="30" as="geometry" />
        </mxCell>
        <mxCell id="9REklD1y4iSybHNgkByB-16" value="Số điện thoại" style="text;strokeColor=none;fillColor=none;align=left;verticalAlign=middle;spacingLeft=4;spacingRight=4;overflow=hidden;points=[[0,0.5],[1,0.5]];portConstraint=eastwest;rotatable=0;whiteSpace=wrap;html=1;" parent="9REklD1y4iSybHNgkByB-9" vertex="1">
          <mxGeometry y="200" width="140" height="30" as="geometry" />
        </mxCell>
        <mxCell id="9REklD1y4iSybHNgkByB-17" value="Số fax" style="text;strokeColor=none;fillColor=none;align=left;verticalAlign=middle;spacingLeft=4;spacingRight=4;overflow=hidden;points=[[0,0.5],[1,0.5]];portConstraint=eastwest;rotatable=0;whiteSpace=wrap;html=1;" parent="9REklD1y4iSybHNgkByB-9" vertex="1">
          <mxGeometry y="230" width="140" height="30" as="geometry" />
        </mxCell>
        <mxCell id="9REklD1y4iSybHNgkByB-15" value="Email" style="text;strokeColor=none;fillColor=none;align=left;verticalAlign=middle;spacingLeft=4;spacingRight=4;overflow=hidden;points=[[0,0.5],[1,0.5]];portConstraint=eastwest;rotatable=0;whiteSpace=wrap;html=1;" parent="9REklD1y4iSybHNgkByB-9" vertex="1">
          <mxGeometry y="260" width="140" height="30" as="geometry" />
        </mxCell>
        <mxCell id="9REklD1y4iSybHNgkByB-22" value="Trình dược viên" style="swimlane;fontStyle=0;childLayout=stackLayout;horizontal=1;startSize=30;horizontalStack=0;resizeParent=1;resizeParentMax=0;resizeLast=0;collapsible=1;marginBottom=0;whiteSpace=wrap;html=1;" parent="1" vertex="1">
          <mxGeometry y="690" width="140" height="180" as="geometry" />
        </mxCell>
        <mxCell id="9REklD1y4iSybHNgkByB-23" value="&lt;u&gt;Mã nhân viên&lt;/u&gt;" style="text;strokeColor=none;fillColor=none;align=left;verticalAlign=middle;spacingLeft=4;spacingRight=4;overflow=hidden;points=[[0,0.5],[1,0.5]];portConstraint=eastwest;rotatable=0;whiteSpace=wrap;html=1;" parent="9REklD1y4iSybHNgkByB-22" vertex="1">
          <mxGeometry y="30" width="140" height="30" as="geometry" />
        </mxCell>
        <mxCell id="9REklD1y4iSybHNgkByB-24" value="Họ tên" style="text;strokeColor=none;fillColor=none;align=left;verticalAlign=middle;spacingLeft=4;spacingRight=4;overflow=hidden;points=[[0,0.5],[1,0.5]];portConstraint=eastwest;rotatable=0;whiteSpace=wrap;html=1;" parent="9REklD1y4iSybHNgkByB-22" vertex="1">
          <mxGeometry y="60" width="140" height="30" as="geometry" />
        </mxCell>
        <mxCell id="9REklD1y4iSybHNgkByB-25" value="Ngày sinh" style="text;strokeColor=none;fillColor=none;align=left;verticalAlign=middle;spacingLeft=4;spacingRight=4;overflow=hidden;points=[[0,0.5],[1,0.5]];portConstraint=eastwest;rotatable=0;whiteSpace=wrap;html=1;" parent="9REklD1y4iSybHNgkByB-22" vertex="1">
          <mxGeometry y="90" width="140" height="30" as="geometry" />
        </mxCell>
        <mxCell id="9REklD1y4iSybHNgkByB-26" value="Nơi sinh&amp;nbsp;" style="text;strokeColor=none;fillColor=none;align=left;verticalAlign=middle;spacingLeft=4;spacingRight=4;overflow=hidden;points=[[0,0.5],[1,0.5]];portConstraint=eastwest;rotatable=0;whiteSpace=wrap;html=1;" parent="9REklD1y4iSybHNgkByB-22" vertex="1">
          <mxGeometry y="120" width="140" height="30" as="geometry" />
        </mxCell>
        <mxCell id="9REklD1y4iSybHNgkByB-27" value="Địa chỉ&lt;span style=&quot;color: rgba(0, 0, 0, 0); font-family: monospace; font-size: 0px; text-wrap-mode: nowrap;&quot;&gt;%3CmxGraphModel%3E%3Croot%3E%3CmxCell%20id%3D%220%22%2F%3E%3CmxCell%20id%3D%221%22%20parent%3D%220%22%2F%3E%3CmxCell%20id%3D%222%22%20value%3D%22H%E1%BB%8D%20t%C3%AAn%22%20style%3D%22text%3BstrokeColor%3Dnone%3BfillColor%3Dnone%3Balign%3Dleft%3BverticalAlign%3Dmiddle%3BspacingLeft%3D4%3BspacingRight%3D4%3Boverflow%3Dhidden%3Bpoints%3D%5B%5B0%2C0.5%5D%2C%5B1%2C0.5%5D%5D%3BportConstraint%3Deastwest%3Brotatable%3D0%3BwhiteSpace%3Dwrap%3Bhtml%3D1%3B%22%20vertex%3D%221%22%20parent%3D%221%22%3E%3CmxGeometry%20y%3D%22420%22%20width%3D%22140%22%20height%3D%2230%22%20as%3D%22geometry%22%2F%3E%3C%2FmxCell%3E%3C%2Froot%3E%3C%2FmxGraphModel%3E&lt;/span&gt;" style="text;strokeColor=none;fillColor=none;align=left;verticalAlign=middle;spacingLeft=4;spacingRight=4;overflow=hidden;points=[[0,0.5],[1,0.5]];portConstraint=eastwest;rotatable=0;whiteSpace=wrap;html=1;" parent="9REklD1y4iSybHNgkByB-22" vertex="1">
          <mxGeometry y="150" width="140" height="30" as="geometry" />
        </mxCell>
        <mxCell id="9REklD1y4iSybHNgkByB-29" value="là" style="rhombus;whiteSpace=wrap;html=1;" parent="1" vertex="1">
          <mxGeometry x="-140" y="760" width="40" height="40" as="geometry" />
        </mxCell>
        <mxCell id="9REklD1y4iSybHNgkByB-30" value="" style="endArrow=none;html=1;rounded=0;" parent="1" source="9REklD1y4iSybHNgkByB-29" target="9REklD1y4iSybHNgkByB-1" edge="1">
          <mxGeometry width="50" height="50" relative="1" as="geometry">
            <mxPoint x="230" y="580" as="sourcePoint" />
            <mxPoint x="280" y="530" as="targetPoint" />
          </mxGeometry>
        </mxCell>
        <mxCell id="9REklD1y4iSybHNgkByB-32" value="1-n" style="edgeLabel;html=1;align=center;verticalAlign=middle;resizable=0;points=[];" parent="9REklD1y4iSybHNgkByB-30" vertex="1" connectable="0">
          <mxGeometry x="0.1047" y="2" relative="1" as="geometry">
            <mxPoint as="offset" />
          </mxGeometry>
        </mxCell>
        <mxCell id="9REklD1y4iSybHNgkByB-31" value="" style="endArrow=none;html=1;rounded=0;" parent="1" source="9REklD1y4iSybHNgkByB-22" target="9REklD1y4iSybHNgkByB-29" edge="1">
          <mxGeometry width="50" height="50" relative="1" as="geometry">
            <mxPoint x="170" y="640" as="sourcePoint" />
            <mxPoint x="170" y="560" as="targetPoint" />
          </mxGeometry>
        </mxCell>
        <mxCell id="9REklD1y4iSybHNgkByB-33" value="1-1" style="edgeLabel;html=1;align=center;verticalAlign=middle;resizable=0;points=[];" parent="9REklD1y4iSybHNgkByB-31" vertex="1" connectable="0">
          <mxGeometry x="-0.0096" y="2" relative="1" as="geometry">
            <mxPoint as="offset" />
          </mxGeometry>
        </mxCell>
        <mxCell id="9REklD1y4iSybHNgkByB-34" value="&lt;br&gt;chào &lt;br&gt;hàng&lt;div&gt;&lt;br/&gt;&lt;/div&gt;" style="rhombus;whiteSpace=wrap;html=1;" parent="1" vertex="1">
          <mxGeometry x="290" y="750" width="60" height="60" as="geometry" />
        </mxCell>
        <mxCell id="9REklD1y4iSybHNgkByB-36" value="" style="endArrow=none;html=1;rounded=0;" parent="1" source="9REklD1y4iSybHNgkByB-22" target="9REklD1y4iSybHNgkByB-34" edge="1">
          <mxGeometry width="50" height="50" relative="1" as="geometry">
            <mxPoint x="260" y="650" as="sourcePoint" />
            <mxPoint x="310" y="600" as="targetPoint" />
          </mxGeometry>
        </mxCell>
        <mxCell id="9REklD1y4iSybHNgkByB-39" value="1-n" style="edgeLabel;html=1;align=center;verticalAlign=middle;resizable=0;points=[];" parent="9REklD1y4iSybHNgkByB-36" vertex="1" connectable="0">
          <mxGeometry x="-0.0193" y="-1" relative="1" as="geometry">
            <mxPoint as="offset" />
          </mxGeometry>
        </mxCell>
        <mxCell id="9REklD1y4iSybHNgkByB-37" value="" style="endArrow=none;html=1;rounded=0;" parent="1" source="9REklD1y4iSybHNgkByB-9" target="9REklD1y4iSybHNgkByB-34" edge="1">
          <mxGeometry width="50" height="50" relative="1" as="geometry">
            <mxPoint x="150" y="790" as="sourcePoint" />
            <mxPoint x="270" y="790" as="targetPoint" />
          </mxGeometry>
        </mxCell>
        <mxCell id="9REklD1y4iSybHNgkByB-38" value="1-n" style="edgeLabel;html=1;align=center;verticalAlign=middle;resizable=0;points=[];" parent="9REklD1y4iSybHNgkByB-37" vertex="1" connectable="0">
          <mxGeometry x="-0.0153" relative="1" as="geometry">
            <mxPoint as="offset" />
          </mxGeometry>
        </mxCell>
        <mxCell id="9REklD1y4iSybHNgkByB-47" value="Hợp đồng" style="swimlane;fontStyle=0;childLayout=stackLayout;horizontal=1;startSize=30;horizontalStack=0;resizeParent=1;resizeParentMax=0;resizeLast=0;collapsible=1;marginBottom=0;whiteSpace=wrap;html=1;" parent="1" vertex="1">
          <mxGeometry x="250" y="1040" width="140" height="270" as="geometry" />
        </mxCell>
        <mxCell id="9REklD1y4iSybHNgkByB-48" value="&lt;u&gt;Số hợp đồng&amp;nbsp;&lt;/u&gt;" style="text;strokeColor=none;fillColor=none;align=left;verticalAlign=middle;spacingLeft=4;spacingRight=4;overflow=hidden;points=[[0,0.5],[1,0.5]];portConstraint=eastwest;rotatable=0;whiteSpace=wrap;html=1;" parent="9REklD1y4iSybHNgkByB-47" vertex="1">
          <mxGeometry y="30" width="140" height="30" as="geometry" />
        </mxCell>
        <mxCell id="9REklD1y4iSybHNgkByB-49" value="Ngày lập&amp;nbsp;" style="text;strokeColor=none;fillColor=none;align=left;verticalAlign=middle;spacingLeft=4;spacingRight=4;overflow=hidden;points=[[0,0.5],[1,0.5]];portConstraint=eastwest;rotatable=0;whiteSpace=wrap;html=1;" parent="9REklD1y4iSybHNgkByB-47" vertex="1">
          <mxGeometry y="60" width="140" height="30" as="geometry" />
        </mxCell>
        <mxCell id="9REklD1y4iSybHNgkByB-51" value="Tên khách hàng" style="text;strokeColor=none;fillColor=none;align=left;verticalAlign=middle;spacingLeft=4;spacingRight=4;overflow=hidden;points=[[0,0.5],[1,0.5]];portConstraint=eastwest;rotatable=0;whiteSpace=wrap;html=1;" parent="9REklD1y4iSybHNgkByB-47" vertex="1">
          <mxGeometry y="90" width="140" height="30" as="geometry" />
        </mxCell>
        <mxCell id="9REklD1y4iSybHNgkByB-50" value="Người đại diện" style="text;strokeColor=none;fillColor=none;align=left;verticalAlign=middle;spacingLeft=4;spacingRight=4;overflow=hidden;points=[[0,0.5],[1,0.5]];portConstraint=eastwest;rotatable=0;whiteSpace=wrap;html=1;" parent="9REklD1y4iSybHNgkByB-47" vertex="1">
          <mxGeometry y="120" width="140" height="30" as="geometry" />
        </mxCell>
        <mxCell id="9REklD1y4iSybHNgkByB-53" value="Địa chỉ&amp;nbsp;" style="text;strokeColor=none;fillColor=none;align=left;verticalAlign=middle;spacingLeft=4;spacingRight=4;overflow=hidden;points=[[0,0.5],[1,0.5]];portConstraint=eastwest;rotatable=0;whiteSpace=wrap;html=1;" parent="9REklD1y4iSybHNgkByB-47" vertex="1">
          <mxGeometry y="150" width="140" height="30" as="geometry" />
        </mxCell>
        <mxCell id="9REklD1y4iSybHNgkByB-54" value="Số điện thoại" style="text;strokeColor=none;fillColor=none;align=left;verticalAlign=middle;spacingLeft=4;spacingRight=4;overflow=hidden;points=[[0,0.5],[1,0.5]];portConstraint=eastwest;rotatable=0;whiteSpace=wrap;html=1;" parent="9REklD1y4iSybHNgkByB-47" vertex="1">
          <mxGeometry y="180" width="140" height="30" as="geometry" />
        </mxCell>
        <mxCell id="9REklD1y4iSybHNgkByB-66" value="Nhân viên lập" style="text;strokeColor=none;fillColor=none;align=left;verticalAlign=middle;spacingLeft=4;spacingRight=4;overflow=hidden;points=[[0,0.5],[1,0.5]];portConstraint=eastwest;rotatable=0;whiteSpace=wrap;html=1;" parent="9REklD1y4iSybHNgkByB-47" vertex="1">
          <mxGeometry y="210" width="140" height="30" as="geometry" />
        </mxCell>
        <mxCell id="9REklD1y4iSybHNgkByB-52" value="Thời gian hiệu lực" style="text;strokeColor=none;fillColor=none;align=left;verticalAlign=middle;spacingLeft=4;spacingRight=4;overflow=hidden;points=[[0,0.5],[1,0.5]];portConstraint=eastwest;rotatable=0;whiteSpace=wrap;html=1;" parent="9REklD1y4iSybHNgkByB-47" vertex="1">
          <mxGeometry y="240" width="140" height="30" as="geometry" />
        </mxCell>
        <mxCell id="9REklD1y4iSybHNgkByB-55" value="đặt&amp;nbsp;&lt;br&gt;hàng&amp;nbsp;" style="rhombus;whiteSpace=wrap;html=1;" parent="1" vertex="1">
          <mxGeometry x="440" y="940" width="60" height="60" as="geometry" />
        </mxCell>
        <mxCell id="9REklD1y4iSybHNgkByB-56" value="" style="endArrow=none;html=1;rounded=0;" parent="1" source="9REklD1y4iSybHNgkByB-55" target="9REklD1y4iSybHNgkByB-9" edge="1">
          <mxGeometry width="50" height="50" relative="1" as="geometry">
            <mxPoint x="540" y="1040" as="sourcePoint" />
            <mxPoint x="590" y="990" as="targetPoint" />
          </mxGeometry>
        </mxCell>
        <mxCell id="9REklD1y4iSybHNgkByB-58" value="0-n" style="edgeLabel;html=1;align=center;verticalAlign=middle;resizable=0;points=[];" parent="9REklD1y4iSybHNgkByB-56" vertex="1" connectable="0">
          <mxGeometry x="0.0355" y="3" relative="1" as="geometry">
            <mxPoint x="-1" as="offset" />
          </mxGeometry>
        </mxCell>
        <mxCell id="9REklD1y4iSybHNgkByB-57" value="" style="endArrow=none;html=1;rounded=0;" parent="1" source="9REklD1y4iSybHNgkByB-55" target="9REklD1y4iSybHNgkByB-47" edge="1">
          <mxGeometry width="50" height="50" relative="1" as="geometry">
            <mxPoint x="475" y="955" as="sourcePoint" />
            <mxPoint x="560" y="864" as="targetPoint" />
          </mxGeometry>
        </mxCell>
        <mxCell id="9REklD1y4iSybHNgkByB-59" value="0-1" style="edgeLabel;html=1;align=center;verticalAlign=middle;resizable=0;points=[];" parent="9REklD1y4iSybHNgkByB-57" vertex="1" connectable="0">
          <mxGeometry x="-0.1319" y="-3" relative="1" as="geometry">
            <mxPoint as="offset" />
          </mxGeometry>
        </mxCell>
        <mxCell id="9REklD1y4iSybHNgkByB-60" value="&lt;div&gt;lập&lt;/div&gt;" style="rhombus;whiteSpace=wrap;html=1;" parent="1" vertex="1">
          <mxGeometry x="150" y="925" width="60" height="60" as="geometry" />
        </mxCell>
        <mxCell id="9REklD1y4iSybHNgkByB-61" value="" style="endArrow=none;html=1;rounded=0;" parent="1" source="9REklD1y4iSybHNgkByB-60" target="9REklD1y4iSybHNgkByB-22" edge="1">
          <mxGeometry width="50" height="50" relative="1" as="geometry">
            <mxPoint x="70" y="980" as="sourcePoint" />
            <mxPoint x="120" y="930" as="targetPoint" />
          </mxGeometry>
        </mxCell>
        <mxCell id="9REklD1y4iSybHNgkByB-65" value="1-n" style="edgeLabel;html=1;align=center;verticalAlign=middle;resizable=0;points=[];" parent="9REklD1y4iSybHNgkByB-61" vertex="1" connectable="0">
          <mxGeometry x="0.1439" y="-1" relative="1" as="geometry">
            <mxPoint as="offset" />
          </mxGeometry>
        </mxCell>
        <mxCell id="9REklD1y4iSybHNgkByB-62" value="" style="endArrow=none;html=1;rounded=0;entryX=1;entryY=1;entryDx=0;entryDy=0;" parent="1" source="9REklD1y4iSybHNgkByB-47" target="9REklD1y4iSybHNgkByB-60" edge="1">
          <mxGeometry width="50" height="50" relative="1" as="geometry">
            <mxPoint x="170" y="960" as="sourcePoint" />
            <mxPoint x="127" y="880" as="targetPoint" />
          </mxGeometry>
        </mxCell>
        <mxCell id="9REklD1y4iSybHNgkByB-64" value="1-1" style="edgeLabel;html=1;align=center;verticalAlign=middle;resizable=0;points=[];" parent="9REklD1y4iSybHNgkByB-62" vertex="1" connectable="0">
          <mxGeometry x="0.1543" y="1" relative="1" as="geometry">
            <mxPoint as="offset" />
          </mxGeometry>
        </mxCell>
        <mxCell id="9REklD1y4iSybHNgkByB-67" value="&lt;div&gt;có&lt;/div&gt;" style="rhombus;whiteSpace=wrap;html=1;" parent="1" vertex="1">
          <mxGeometry x="510" y="1152.5" width="40" height="45" as="geometry" />
        </mxCell>
        <mxCell id="9REklD1y4iSybHNgkByB-68" value="Dược phẩm" style="swimlane;fontStyle=0;childLayout=stackLayout;horizontal=1;startSize=30;horizontalStack=0;resizeParent=1;resizeParentMax=0;resizeLast=0;collapsible=1;marginBottom=0;whiteSpace=wrap;html=1;" parent="1" vertex="1">
          <mxGeometry x="650" y="1065" width="140" height="220" as="geometry" />
        </mxCell>
        <mxCell id="9REklD1y4iSybHNgkByB-69" value="&lt;u&gt;Mã dược phẩm&lt;/u&gt;" style="text;strokeColor=none;fillColor=none;align=left;verticalAlign=middle;spacingLeft=4;spacingRight=4;overflow=hidden;points=[[0,0.5],[1,0.5]];portConstraint=eastwest;rotatable=0;whiteSpace=wrap;html=1;" parent="9REklD1y4iSybHNgkByB-68" vertex="1">
          <mxGeometry y="30" width="140" height="30" as="geometry" />
        </mxCell>
        <mxCell id="9REklD1y4iSybHNgkByB-70" value="Tên dược phẩm" style="text;strokeColor=none;fillColor=none;align=left;verticalAlign=middle;spacingLeft=4;spacingRight=4;overflow=hidden;points=[[0,0.5],[1,0.5]];portConstraint=eastwest;rotatable=0;whiteSpace=wrap;html=1;" parent="9REklD1y4iSybHNgkByB-68" vertex="1">
          <mxGeometry y="60" width="140" height="50" as="geometry" />
        </mxCell>
        <mxCell id="9REklD1y4iSybHNgkByB-71" value="Đơn vị tính&amp;nbsp;" style="text;strokeColor=none;fillColor=none;align=left;verticalAlign=middle;spacingLeft=4;spacingRight=4;overflow=hidden;points=[[0,0.5],[1,0.5]];portConstraint=eastwest;rotatable=0;whiteSpace=wrap;html=1;" parent="9REklD1y4iSybHNgkByB-68" vertex="1">
          <mxGeometry y="110" width="140" height="30" as="geometry" />
        </mxCell>
        <mxCell id="9REklD1y4iSybHNgkByB-72" value="Gía gốc" style="text;strokeColor=none;fillColor=none;align=left;verticalAlign=middle;spacingLeft=4;spacingRight=4;overflow=hidden;points=[[0,0.5],[1,0.5]];portConstraint=eastwest;rotatable=0;whiteSpace=wrap;html=1;" parent="9REklD1y4iSybHNgkByB-68" vertex="1">
          <mxGeometry y="140" width="140" height="30" as="geometry" />
        </mxCell>
        <mxCell id="9REklD1y4iSybHNgkByB-73" value="Loại thuốc (độc A, độc B, không độc)" style="text;strokeColor=none;fillColor=none;align=left;verticalAlign=middle;spacingLeft=4;spacingRight=4;overflow=hidden;points=[[0,0.5],[1,0.5]];portConstraint=eastwest;rotatable=0;whiteSpace=wrap;html=1;" parent="9REklD1y4iSybHNgkByB-68" vertex="1">
          <mxGeometry y="170" width="140" height="50" as="geometry" />
        </mxCell>
        <mxCell id="9REklD1y4iSybHNgkByB-77" value="" style="endArrow=none;html=1;rounded=0;" parent="1" source="9REklD1y4iSybHNgkByB-47" target="9REklD1y4iSybHNgkByB-67" edge="1">
          <mxGeometry width="50" height="50" relative="1" as="geometry">
            <mxPoint x="520" y="1320" as="sourcePoint" />
            <mxPoint x="570" y="1270" as="targetPoint" />
          </mxGeometry>
        </mxCell>
        <mxCell id="9REklD1y4iSybHNgkByB-80" value="1-n" style="edgeLabel;html=1;align=center;verticalAlign=middle;resizable=0;points=[];" parent="9REklD1y4iSybHNgkByB-77" vertex="1" connectable="0">
          <mxGeometry x="-0.0249" relative="1" as="geometry">
            <mxPoint as="offset" />
          </mxGeometry>
        </mxCell>
        <mxCell id="9REklD1y4iSybHNgkByB-79" value="" style="endArrow=none;html=1;rounded=0;" parent="1" source="9REklD1y4iSybHNgkByB-67" target="9REklD1y4iSybHNgkByB-68" edge="1">
          <mxGeometry width="50" height="50" relative="1" as="geometry">
            <mxPoint x="540" y="1320" as="sourcePoint" />
            <mxPoint x="590" y="1270" as="targetPoint" />
          </mxGeometry>
        </mxCell>
        <mxCell id="9REklD1y4iSybHNgkByB-81" value="0-n" style="edgeLabel;html=1;align=center;verticalAlign=middle;resizable=0;points=[];" parent="9REklD1y4iSybHNgkByB-79" vertex="1" connectable="0">
          <mxGeometry x="-0.0098" y="2" relative="1" as="geometry">
            <mxPoint as="offset" />
          </mxGeometry>
        </mxCell>
      </root>
    </mxGraphModel>
  </diagram>
</mxfile>
